<svg xmlns="http://www.w3.org/2000/svg" viewBox="0 0 1200 675" role="img" aria-labelledby="title desc">
  <title id="title">DFT models and Monte Carlo simulation</title>
  <desc id="desc">Computational workflow from molecule to energy levels, density of states, hopping network and device prediction.</desc>
  <defs><marker id="ap" markerWidth="10" markerHeight="10" refX="8" refY="3" orient="auto"><path d="M0,0 L8,3 L0,6 Z" fill="#695a9f"/></marker><style>.t{font:800 46px system-ui,Arial;fill:#2c236c}.l{font:700 22px system-ui,Arial;fill:#17202a}.s{font:600 16px system-ui,Arial;fill:#5c6672}.box{fill:#f7f9fb;stroke:#d9e0e7;stroke-width:2}</style></defs>
  <rect width="1200" height="675" fill="#fff"/>
  <text class="t" x="600" y="78" text-anchor="middle">DFT · Physical Models · Monte Carlo</text>
  <g transform="translate(62 170)"><rect class="box" x="0" y="0" width="180" height="250" rx="16"/><text class="l" x="90" y="38" text-anchor="middle">Molecule</text><path d="M48 132 L78 88 L126 108 L146 64" stroke="#17202a" stroke-width="4" fill="none"/><circle cx="48" cy="132" r="12" fill="#0a6f9e"/><circle cx="78" cy="88" r="12" fill="#b14b3b"/><circle cx="126" cy="108" r="12" fill="#3f7f54"/><circle cx="146" cy="64" r="12" fill="#695a9f"/></g>
  <path d="M260 294 H330" stroke="#695a9f" stroke-width="6" marker-end="url(#ap)"/>
  <g transform="translate(348 170)"><rect class="box" width="180" height="250" rx="16"/><text class="l" x="90" y="38" text-anchor="middle">DFT</text><line x1="54" y1="92" x2="126" y2="92" stroke="#0a6f9e" stroke-width="4"/><line x1="54" y1="172" x2="126" y2="172" stroke="#b14b3b" stroke-width="4"/><text class="s" x="90" y="84" text-anchor="middle">LUMO</text><text class="s" x="90" y="198" text-anchor="middle">HOMO</text><text class="s" x="90" y="138" text-anchor="middle">Eg</text></g>
  <path d="M546 294 H616" stroke="#695a9f" stroke-width="6" marker-end="url(#ap)"/>
  <g transform="translate(634 170)"><rect class="box" width="180" height="250" rx="16"/><text class="l" x="90" y="38" text-anchor="middle">DOS</text><path d="M72 208 C46 184,108 154,72 130 C42 102,126 86,84 60" stroke="#0a6f9e" stroke-width="5" fill="none"/><line x1="122" y1="60" x2="122" y2="210" stroke="#5c6672" stroke-width="2"/><text class="s" x="90" y="230" text-anchor="middle">energetic disorder</text></g>
  <path d="M832 294 H902" stroke="#695a9f" stroke-width="6" marker-end="url(#ap)"/>
  <g transform="translate(920 170)"><rect class="box" width="220" height="250" rx="16"/><text class="l" x="110" y="38" text-anchor="middle">KMC / Device</text><g stroke="#695a9f" stroke-width="3" fill="#fff"><circle cx="54" cy="114" r="10"/><circle cx="96" cy="86" r="10"/><circle cx="142" cy="132" r="10"/><circle cx="78" cy="174" r="10"/><circle cx="168" cy="190" r="10"/></g><path d="M54 114 L96 86 L142 132 L168 190 M54 114 L78 174 L142 132" stroke="#695a9f" stroke-width="3" fill="none"/><rect x="126" y="70" width="66" height="118" fill="#dbeafe" stroke="#0a6f9e"/><text class="s" x="110" y="226" text-anchor="middle">transport prediction</text></g>
  <path d="M1030 482 C760 570,430 570,150 462" stroke="#695a9f" stroke-width="5" fill="none" marker-end="url(#ap)" opacity=".7"/>
</svg>
